<svg width="44" height="32" viewBox="0 0 44 32" fill="none" xmlns="http://www.w3.org/2000/svg">
<path d="M12.2222 0H7.33333C3.28957 0 0 3.06021 0 6.82203V11.37C0 15.1319 3.28957 18.1921 7.33333 18.1921H12.2222C13.0071 18.1921 13.7492 18.0467 14.4587 17.8331C13.4731 23.189 8.48075 27.2881 2.44444 27.2881C1.09332 27.2881 0 28.3052 0 29.5621C0 30.819 1.09332 31.8361 2.44444 31.8361C11.8785 31.8361 19.5556 24.6944 19.5556 15.9181V6.82203C19.5556 3.06021 16.266 0 12.2222 0ZM36.6667 0H31.7778C27.734 0 24.4444 3.06021 24.4444 6.82203V11.37C24.4444 15.1319 27.734 18.1921 31.7778 18.1921H36.6667C37.4515 18.1921 38.1936 18.0467 38.9032 17.8331C37.9176 23.189 32.9252 27.2881 26.8889 27.2881C25.5378 27.2881 24.4444 28.3052 24.4444 29.5621C24.4444 30.819 25.5378 31.8361 26.8889 31.8361C36.323 31.8361 44 24.6944 44 15.9181V6.82203C44 3.06021 40.7104 0 36.6667 0Z" fill="white"/>
<path d="M7.33301 0.5H12.2227C16.0247 0.500219 19.0557 3.37014 19.0557 6.82227V15.918C19.0557 24.3847 11.6369 31.3359 2.44434 31.3359C1.3349 31.3359 0.500218 30.5097 0.5 29.5625C0.5 28.6152 1.33476 27.7881 2.44434 27.7881C8.70289 27.7881 13.9175 23.535 14.9502 17.9238L15.0986 17.1182L14.3145 17.3545C13.6369 17.5584 12.945 17.6923 12.2227 17.6924H7.33301C3.53092 17.6922 0.50004 14.8222 0.5 11.3701V6.82227C0.5 3.37011 3.53089 0.500164 7.33301 0.5ZM31.7773 0.5H36.667C40.4691 0.500165 43.5 3.37011 43.5 6.82227V15.918C43.5 24.3847 36.0813 31.3359 26.8887 31.3359C25.7793 31.3358 24.9446 30.5096 24.9443 29.5625C24.9443 28.6152 25.7791 27.7882 26.8887 27.7881C33.1472 27.7881 38.3618 23.5349 39.3945 17.9238L39.543 17.1182L38.7588 17.3545C38.0813 17.5584 37.3893 17.6923 36.667 17.6924H31.7773C27.9753 17.6922 24.9444 14.8222 24.9443 11.3701V6.82227C24.9443 3.37014 27.9753 0.500218 31.7773 0.5Z" stroke="black" stroke-opacity="0.1"/>
</svg>
